<?xml version="1.0" standalone="no"?><!DOCTYPE svg PUBLIC "-//W3C//DTD SVG 1.1//EN" "http://www.w3.org/Graphics/SVG/1.1/DTD/svg11.dtd"><svg t="1624095165859" class="icon" viewBox="0 0 1024 1024" version="1.1" xmlns="http://www.w3.org/2000/svg" p-id="969" width="16" height="16" xmlns:xlink="http://www.w3.org/1999/xlink"><defs><style type="text/css"></style></defs><path d="M827.6 256c-99.2-117.4-208-205.4-239-229.6a124.632 124.632 0 0 0-153.4 0c-63.8 49.6-160 136-239 229.392C92.6 378.8 40 486.8 40 576.992 40 670 65.2 742.4 115 792c44.6 44.6 107.2 68 181 68 66.8 0 125.4-22.4 171.8-65-5 55-14.4 92.6-29 115.2-13.8 21.4-33.6 33.8-94.4 33.8-22 0-40 18-40 40s18 40 40 40h335.2c22 0 40-18 40-40s-18-40-40-40c-60.8 0-80.8-12.4-94.4-33.8-14.8-23-24.2-61.2-29.2-117.6 47.2 44.192 106 67.4 172 67.4 34.2 0 66.2-5 95-15 20.8-7.2 32-30 24.8-50.8-7.2-20.8-30-32-50.8-24.8-20.4 7-43.6 10.6-69 10.6-55.4 0-101.6-22.8-137.4-67.6-28.8-35.8-40-73-40.2-73.2 0-0.2-0.2-0.4-0.2-0.6-0.2-1-0.6-1.808-1-2.8-0.2-0.4-0.2-0.6-0.4-1.008-0.4-0.8-0.8-1.792-1.2-2.592-0.2-0.4-0.4-0.6-0.4-1-0.4-0.8-1-1.8-1.6-2.6-0.2-0.2-0.2-0.4-0.4-0.6-0.6-1-1.4-1.8-2-2.8 0 0 0-0.2-0.2-0.2-5.2-6.4-12.4-11.2-21-13.4-19.4-5-39 5-46.6 22.6-0.2 0.2-0.2 0.4-0.4 0.8-0.4 0.8-0.6 1.6-1 2.4l-0.6 1.8c0 0.4-0.2 0.592-0.2 1C471.8 646 434.2 780 296 780c-80.2 0-176-35.2-176-203 0-149.6 218-373.6 364.4-487.6a44.736 44.736 0 0 1 55 0c60.8 47.2 152.2 129.392 227.2 218 90 106.4 137.4 199.6 137.4 269.6 0 34.2-4.2 64.8-12.4 91-6.6 21 5.2 43.6 26.2 50.2 21 6.592 43.6-5.2 50.2-26.2 10.6-33.8 16-72.4 16-114.8 0-90.4-52.6-198.4-156.4-321.2z" fill="#d81e06" p-id="970"></path></svg>